<mxfile host="app.diagrams.net" modified="2023-12-07T12:22:56.756Z" agent="Mozilla/5.0 (X11; Linux x86_64; rv:120.0) Gecko/20100101 Firefox/120.0" version="22.1.7" etag="SdOe5-z-tWNKOl-yHN8Y" type="github">
  <diagram name="PÃ¡gina-1" id="IsZ1z06TihEa0X7wYSvl">
    <mxGraphModel>
      <root>
        <mxCell id="0" />
        <mxCell id="1" parent="0" />
      </root>
    </mxGraphModel>
  </diagram>
</mxfile>
